<svg width="35" height="35" viewBox="0 0 35 35" fill="none" xmlns="http://www.w3.org/2000/svg">
<path d="M6.28721 1.19883C4.79534 1.59177 3.70973 2.68404 3.32344 4.18258C3.20356 4.66877 3.1969 5.01509 3.1969 14.9187C3.1969 24.8224 3.20356 25.1687 3.32344 25.6549C3.62981 26.8537 4.38907 27.7928 5.48133 28.3523C5.90092 28.5587 6.72678 28.7719 7.13971 28.7719H7.4594V29.0916C7.4594 29.5178 7.67252 30.337 7.89897 30.7832C8.43178 31.8422 9.3975 32.6015 10.5764 32.9078C11.0559 33.0277 11.3822 33.0344 19.1413 33.0344C28.1259 33.0344 27.6996 33.0544 28.6787 32.5682C29.6177 32.1086 30.3903 31.1895 30.7233 30.1372L30.8698 29.671V19.1812V8.6915L30.7233 8.22529C30.3903 7.17298 29.6177 6.25388 28.6787 5.79433C28.1259 5.52127 27.4199 5.32812 26.9337 5.32812H26.6606L26.6207 4.84193C26.5008 3.41666 25.6483 2.13791 24.4162 1.53183C23.4371 1.04564 23.87 1.06562 14.8522 1.07228C7.16635 1.07228 6.73344 1.07894 6.28721 1.19883ZM23.1774 3.30343C23.6769 3.44996 24.2563 4.02939 24.4028 4.5289C24.4628 4.72871 24.5094 4.98845 24.5094 5.10834V5.32812H17.796C11.3689 5.32812 11.0559 5.33478 10.5764 5.45467C9.0645 5.84095 7.97223 6.93322 7.58594 8.44507C7.46606 8.9246 7.4594 9.26427 7.4594 17.7959V26.6406H7.23961C6.75342 26.6406 6.32051 26.4475 5.9209 26.0479C5.27487 25.4018 5.32815 26.3875 5.32815 14.9187C5.32815 3.44996 5.27487 4.43566 5.9209 3.78963C6.20063 3.5099 6.39377 3.3767 6.63354 3.30343C6.91327 3.21685 8.02551 3.20353 14.8921 3.20353C21.9519 3.19687 22.8577 3.21019 23.1774 3.30343ZM27.4399 7.56593C27.7129 7.64585 27.8861 7.75908 28.1791 8.05212C28.8252 8.69816 28.7719 7.71246 28.7719 19.1812C28.7719 30.65 28.8252 29.6643 28.1791 30.3104C27.5398 30.9497 28.2457 30.9031 19.1813 30.9031C10.1168 30.9031 10.8228 30.9497 10.1834 30.3104C9.53737 29.6643 9.59065 30.65 9.59065 19.1812C9.59065 7.71246 9.53737 8.69816 10.1834 8.05212C10.4631 7.7724 10.6563 7.63919 10.896 7.56593C11.1758 7.47935 12.288 7.46603 19.1546 7.46603C26.2144 7.45937 27.1202 7.47269 27.4399 7.56593Z" fill="white"/>
</svg>
